<svg width="126" height="24" viewBox="0 0 126 24" fill="none" xmlns="http://www.w3.org/2000/svg">
<path d="M15.4175 7.92228C15.4175 5.66986 13.9806 4.77665 11.8835 4.77665H5.63107V11.2621H11.4175C14.0194 11.2621 15.4175 10.2135 15.4175 7.92228ZM21.2816 7.84461C21.2816 12.6213 18.2136 15.9223 12.3107 15.9223H5.63107V23.6893H0V0.388306H13.3204C18.4078 0.388306 21.2816 3.18442 21.2816 7.84461Z" fill="black"/>
<path d="M43.5346 12.0777C43.5346 7.1068 40.5054 4.66019 36.6219 4.69903C32.7384 4.73786 29.7093 7.14563 29.7093 12.0777C29.7093 16.8932 32.7384 19.3398 36.6219 19.3398C40.5054 19.3398 43.5346 16.932 43.5346 12.0777ZM49.554 12.0777C49.554 19.9612 43.7676 24 36.6608 24C29.5152 24 23.7676 19.9612 23.7676 12.0777C23.7676 4.03883 29.554 0 36.6608 0C43.7676 0 49.554 4.03883 49.554 12.0777Z" fill="black"/>
<path d="M62.5638 14.097L58.758 18.4077V23.6893H53.127V0.388306H58.758V11.3786L68.5833 0.388306H75.6124L66.3697 10.2135L76.6221 23.6893H69.6706L62.5638 14.097Z" fill="black"/>
<path d="M85.2424 5.0485V9.55335H96.7764V14.0194H85.2424V18.9126H98.0968V23.6893H79.6113V0.388306H98.0968V5.0485H85.2424Z" fill="black"/>
<path d="M107.922 10.8349H114.058C116.349 10.8349 117.903 9.98054 117.903 7.88345C117.903 5.63102 116.349 4.81549 114.252 4.81549H107.961V10.8349H107.922ZM111.922 15.3398H107.922V23.7281H102.291V0.388306H115.844C121.281 0.388306 123.767 3.4951 123.767 7.61161C123.767 11.3786 121.67 14.2524 118.097 14.9902L125.048 23.7669H118.213L111.922 15.3398Z" fill="black"/>
</svg>
